# xmcd
#
# Track frame offsets:
#	150
#	28279
#	62389
#	82203
#	106375
#	130608
#	166422
#	203889
#	232222
#	262656
#	298739
#	333130
#
# Disc length: 4791 seconds
#
# Revision: 0
# Processed by: cddbd v1.5.2PL0 Copyright (c) Steve Scherf et al.
# Submitted via: EasyCDDAExtractor 8.2.3.1
#
DISCID=a912b50c
DTITLE=Various Artist - Blues and Jazz Instrumental  vol.1 
DYEAR=2000
DGENRE=Blues
TTITLE0=RONNIE EARL - Glimpses of Serenity
TTITLE1=ROBBEN FORD - Life Song
TTITLE2=TOM WAITS - In Shades
TTITLE3=J.J.CALE - Cloudy Day
TTITLE4=KENNY BURRELL - Chitlins Con Carne
TTITLE5=DUKE ROBILLARD and HERB ELLIS - Easin' In
TTITLE6=JIMMY SMITH - Honky Tonk
TTITLE7=RONNIE EARL - Heart It Glass
TTITLE8="Brother" JACK McDUFF - After Hours
TTITLE9=DUKE ROBILLARD - Morning Glory
TTITLE10=RONNIE EARL - Kansas Monarch
TTITLE11=SCOTT HAMILTON - Skylark
EXTD=
EXTT0=
EXTT1=
EXTT2=
EXTT3=
EXTT4=
EXTT5=
EXTT6=
EXTT7=
EXTT8=
EXTT9=
EXTT10=
EXTT11=
PLAYORDER=
